<?xml version="1.0" encoding="utf-8"?>
<!-- Generator: Adobe Illustrator 16.0.0, SVG Export Plug-In . SVG Version: 6.00 Build 0)  -->
<!DOCTYPE svg PUBLIC "-//W3C//DTD SVG 1.1//EN" "http://www.w3.org/Graphics/SVG/1.1/DTD/svg11.dtd">
<svg version="1.1" id="Layer_1" xmlns="http://www.w3.org/2000/svg" xmlns:xlink="http://www.w3.org/1999/xlink" x="0px" y="0px"
	 width="96px" height="96px" viewBox="-98.774 313.852 96 96" enable-background="new -98.774 313.852 96 96" xml:space="preserve">
<g>
	<path fill="none" stroke="#231F20" stroke-width="3" stroke-linecap="round" stroke-miterlimit="10" d="M-28.647,355.882
		c-1.842,2.407-11.047,4.238-22.126,4.238c-12.405,0-22.462-2.295-22.462-5.125"/>
	<path fill="none" stroke="#231F20" stroke-width="3" stroke-linecap="round" stroke-miterlimit="10" d="M-72.309,368.326"/>
	<path fill="none" stroke="#231F20" stroke-width="3" stroke-linecap="round" stroke-miterlimit="10" d="M-28.312,369.787
		c0,2.83-10.057,5.125-22.462,5.125c-10.854,0-19.91-1.757-22.005-4.092"/>
	<path fill="none" stroke="#231F20" stroke-width="3" stroke-linecap="round" stroke-miterlimit="10" d="M-73.235,383.954"/>
	<path fill="none" stroke="#231F20" stroke-width="3" stroke-linecap="round" stroke-miterlimit="10" d="M-28.312,383.954
		c0,2.83-10.057,5.125-22.462,5.125c-11.582,0-21.116-2-22.331-4.567"/>
	
		<line fill="none" stroke="#231F20" stroke-width="3" stroke-linecap="round" stroke-miterlimit="10" x1="-73.235" y1="369.787" x2="-73.235" y2="383.954"/>
	<path fill="none" stroke="#231F20" stroke-width="3" stroke-linecap="round" stroke-miterlimit="10" d="M-73.235,369.787"/>
	
		<line fill="none" stroke="#231F20" stroke-width="3" stroke-linecap="round" stroke-miterlimit="10" x1="-73.235" y1="354.995" x2="-73.235" y2="368.87"/>
	
		<line fill="none" stroke="#231F20" stroke-width="3" stroke-linecap="round" stroke-miterlimit="10" x1="-73.235" y1="339.996" x2="-73.235" y2="354.995"/>
	
		<line fill="none" stroke="#231F20" stroke-width="3" stroke-linecap="round" stroke-miterlimit="10" x1="-28.312" y1="369.787" x2="-28.312" y2="383.954"/>
	
		<line fill="none" stroke="#231F20" stroke-width="3" stroke-linecap="round" stroke-miterlimit="10" x1="-28.312" y1="339.996" x2="-28.312" y2="369.787"/>
	
		<ellipse fill="none" stroke="#231F20" stroke-width="3" stroke-linecap="round" stroke-miterlimit="10" cx="-50.773" cy="340.996" rx="22.462" ry="5.125"/>
</g>
</svg>
