<?xml version="1.0" encoding="utf-8"?>
<!-- Generator: Adobe Illustrator 16.0.0, SVG Export Plug-In . SVG Version: 6.00 Build 0)  -->
<!DOCTYPE svg PUBLIC "-//W3C//DTD SVG 1.1//EN" "http://www.w3.org/Graphics/SVG/1.1/DTD/svg11.dtd">
<svg version="1.1" id="Layer_1" xmlns="http://www.w3.org/2000/svg" xmlns:xlink="http://www.w3.org/1999/xlink" x="0px" y="0px"
	 width="96px" height="96px" viewBox="-205.343 429.082 96 96" enable-background="new -205.343 429.082 96 96"
	 xml:space="preserve">
<g>
	<g id="XMLID_3_">
		<g>
			<path d="M-145.799,475.941l-11.9,21.729l-11.896-21.724l-1.641-2.991c-0.697-1.705-1.08-3.578-1.08-5.533
				c0-8.106,6.545-14.686,14.613-14.686c8.069,0,14.614,6.578,14.614,14.686c0,1.955-0.383,3.828-1.08,5.533l-0.017,0.024
				L-145.799,475.941z M-150.395,467.584c0-4.104-3.295-7.422-7.354-7.422c-4.066,0-7.355,3.317-7.355,7.422
				c0,4.096,3.289,7.412,7.355,7.412C-153.689,474.996-150.395,471.678-150.395,467.584z"/>
		</g>
		<g>
			<path fill="none" stroke="#000000" stroke-width="2" stroke-linecap="round" stroke-miterlimit="10" d="M-150.395,467.584
				c0,4.096-3.295,7.412-7.354,7.412c-4.066,0-7.355-3.316-7.355-7.412c0-4.104,3.289-7.422,7.355-7.422
				C-153.689,460.162-150.395,463.479-150.395,467.584z"/>
			<path fill="none" stroke="#000000" stroke-width="2" stroke-linecap="round" stroke-miterlimit="10" d="M-144.18,472.982
				c-0.426,1.053-0.969,2.048-1.617,2.959c-0.072,0.106-0.153,0.209-0.229,0.309"/>
			<path fill="none" stroke="#000000" stroke-width="2" stroke-linecap="round" stroke-miterlimit="10" d="M-168.896,476.86
				c-0.242-0.293-0.479-0.604-0.697-0.911c-0.666-0.919-1.219-1.922-1.641-2.992c-0.697-1.705-1.08-3.576-1.08-5.533
				c0-8.105,6.543-14.685,14.613-14.685c8.069,0,14.612,6.578,14.612,14.685c0,1.957-0.381,3.828-1.078,5.533"/>
			<polyline fill="none" stroke="#000000" stroke-width="2" stroke-linecap="round" stroke-miterlimit="10" points="
				-171.234,472.957 -169.594,475.949 -157.699,497.672 			"/>
			<polyline fill="none" stroke="#000000" stroke-width="2" stroke-linecap="round" stroke-miterlimit="10" points="
				-157.699,497.672 -145.799,475.941 -144.18,472.982 -144.166,472.957 			"/>
		</g>
	</g>
	<path fill="none" stroke="#000000" stroke-width="3" stroke-linecap="round" stroke-miterlimit="10" d="M-145.204,497.385
		c1.339,0.591,2.116,1.3,2.136,2.076c0.058,2.283-6.438,4.293-14.508,4.492c-8.068,0.198-14.654-1.49-14.713-3.771
		c-0.021-0.867,0.902-1.694,2.498-2.398"/>
</g>
</svg>
